<?xml version="1.0" encoding="UTF-8" standalone="no"?>
<!-- Created with Inkscape (http://www.inkscape.org/) -->

<svg
   width="55mm"
   height="65mm"
   viewBox="0 0 55 65"
   version="1.1"
   id="svg2788"
   inkscape:version="1.3 (1:1.3+202307231459+0e150ed6c4)"
   sodipodi:docname="jinooca.svg"
   xml:space="preserve"
   xmlns:inkscape="http://www.inkscape.org/namespaces/inkscape"
   xmlns:sodipodi="http://sodipodi.sourceforge.net/DTD/sodipodi-0.dtd"
   xmlns="http://www.w3.org/2000/svg"
   xmlns:svg="http://www.w3.org/2000/svg"
   xmlns:rdf="http://www.w3.org/1999/02/22-rdf-syntax-ns#"
   xmlns:cc="http://creativecommons.org/ns#"
   xmlns:dc="http://purl.org/dc/elements/1.1/"><defs
     id="defs2782" /><sodipodi:namedview
     id="base"
     pagecolor="#ffffff"
     bordercolor="#666666"
     borderopacity="1.0"
     inkscape:pageopacity="0.0"
     inkscape:pageshadow="2"
     inkscape:zoom="1.979899"
     inkscape:cx="-143.94674"
     inkscape:cy="140.4112"
     inkscape:document-units="mm"
     inkscape:current-layer="layer1"
     showgrid="false"
     inkscape:window-width="2490"
     inkscape:window-height="1376"
     inkscape:window-x="0"
     inkscape:window-y="0"
     inkscape:window-maximized="1"
     inkscape:showpageshadow="2"
     inkscape:pagecheckerboard="0"
     inkscape:deskcolor="#d1d1d1" /><metadata
     id="metadata2785"><rdf:RDF><cc:Work
         rdf:about=""><dc:format>image/svg+xml</dc:format><dc:type
           rdf:resource="http://purl.org/dc/dcmitype/StillImage" /><dc:title /></cc:Work></rdf:RDF></metadata><g
     inkscape:label="Calque 1"
     inkscape:groupmode="layer"
     id="layer1"
     transform="translate(0,-232)"><g
       id="g1"><path
         style="fill:#040e26;fill-opacity:1;stroke-width:1.0233"
         inkscape:connector-curvature="0"
         d="m 27.685263,295.65062 c 7.093775,-6.22353 15.731013,-10.41037 25,-12.11847 v -4.82526 c 0,-15.81122 -9.325055,-31.83664 -25.001042,-43.05627 -15.673904,11.21759 -24.9989586,27.24403 -24.9989586,43.05627 v 4.82526 c 9.2689866,1.7081 17.9062246,5.89494 25.0000006,12.11847 z m 2.623728,-40.01742 10.331452,10.36486 -3.510571,3.52158 -6.820881,-6.84227 -13.968683,14.0125 -3.510567,-3.52259 z"
         id="path3539" /><path
         style="fill:#ffffff;fill-opacity:1;stroke-width:1.0233"
         d="m 28.152366,293.31656 c 6.796605,-5.57749 14.80809,-9.35035 23.16285,-11.06686 0.72127,-12.44406 -4.10688,-24.5841 -11.769476,-33.61112 -3.512964,-4.25492 -7.510695,-7.94401 -11.862646,-11.14972 -12.153784,8.86959 -22.5860798,22.80919 -23.5430629,39.23599 -0.087759,1.84272 -0.042766,3.68821 -0.049325,5.53231 8.5329829,1.76109 16.7117759,5.66173 23.5930729,11.44977 l 0.278637,-0.23213 z M 15.865663,278.29079 c -1.203579,-1.94856 -3.964532,-2.6728 -4.387863,-5.15314 0.288611,-2.04695 2.687877,-2.83364 3.710805,-4.41517 5.040113,-5.0558 10.08027,-10.11154 15.120357,-15.16737 4.134443,4.14768 8.268618,8.29567 12.403164,12.44323 -1.860753,1.86637 -3.721281,3.733 -5.581938,5.59949 -2.273696,-2.28081 -4.547491,-4.56149 -6.821226,-6.84224 -4.656178,4.67072 -9.31239,9.3414 -13.968546,14.01215 l -0.257865,-0.25905 z"
         id="path3541"
         inkscape:connector-curvature="0" /><path
         style="fill:#040e26;fill-opacity:1;stroke-width:1.0233"
         d="m 27.94342,291.58267 c 6.511857,-5.24206 14.214814,-8.75554 22.025637,-10.65858 0.444102,-15.01337 -7.465518,-28.94083 -18.022218,-38.05948 -1.369944,-1.26811 -2.764081,-2.54518 -4.373356,-3.44183 -11.065688,8.33793 -20.4913893,21.02725 -21.918766,35.99288 -0.1521671,1.7775 -0.2002744,3.70389 -0.1719529,5.58531 8.0065219,1.80041 15.6144459,5.55671 22.2386939,10.76085 z M 15.864293,280.36952 c -1.742971,-2.63351 -5.531977,-3.75103 -5.788144,-7.42071 0.654332,-3.28461 3.985026,-4.43084 5.710032,-6.903 4.840925,-4.85623 9.681863,-9.71244 14.522781,-14.56868 4.824976,4.84036 9.649734,9.68097 14.474811,14.52121 -2.551284,2.55905 -5.102395,5.1183 -7.653585,7.67746 -2.273696,-2.2808 -4.547491,-4.56148 -6.821226,-6.84224 -4.656626,4.67124 -9.313356,9.34234 -13.969917,14.01365 l -0.257679,-0.25927 z"
         id="path3547"
         inkscape:connector-curvature="0" /><path
         style="fill:#040e26;fill-opacity:1;stroke:none;stroke-width:0.0692307px;stroke-linecap:butt;stroke-linejoin:miter;stroke-opacity:1"
         d="m 20.689685,284.50178 -10.676727,-5.84501 0.06319,-5.70796 -0.257314,-5.37739 10.676727,-11.48847 9.813399,-4.60582 9.404709,6.01668 5.070102,8.50453 -3.323001,7.01498 z"
         id="path3655"
         inkscape:connector-curvature="0" /><rect
         transform="matrix(0,-1,-1,0,0,0)"
         style="fill:#fc5e28;fill-opacity:1;stroke:none;stroke-width:0.119135;stroke-miterlimit:4;stroke-dasharray:none;stroke-opacity:1"
         id="rect3553"
         width="14.412346"
         height="1.5686284"
         x="-273.11411"
         y="-24.840811" /><rect
         style="fill:#fc5e28;fill-opacity:1;stroke:none;stroke-width:0.0595678;stroke-miterlimit:4;stroke-dasharray:none;stroke-opacity:1"
         id="rect3555"
         width="3.921571"
         height="1.4412346"
         x="20.919245"
         y="258.70178" /><rect
         y="-27.240587"
         x="-273.09851"
         height="1.5686284"
         width="16.557604"
         id="rect3557"
         style="fill:#f9bb01;fill-opacity:1;stroke:none;stroke-width:0.127694;stroke-miterlimit:4;stroke-dasharray:none;stroke-opacity:1"
         transform="matrix(0,-1,-1,0,0,0)" /><rect
         y="256.54092"
         x="19.397448"
         height="1.4412346"
         width="7.843142"
         id="rect3559"
         style="fill:#f9bb01;fill-opacity:1;stroke:none;stroke-width:0.0842417;stroke-miterlimit:4;stroke-dasharray:none;stroke-opacity:1" /><rect
         y="30.51293"
         x="-273.11411"
         height="1.5686284"
         width="14.412346"
         id="rect3561"
         style="fill:#fc5e28;fill-opacity:1;stroke:none;stroke-width:0.119135;stroke-miterlimit:4;stroke-dasharray:none;stroke-opacity:1"
         transform="rotate(-90)" /><rect
         y="258.70178"
         x="-34.434502"
         height="1.4412346"
         width="3.921571"
         id="rect3563"
         style="fill:#fc5e28;fill-opacity:1;stroke:none;stroke-width:0.0595678;stroke-miterlimit:4;stroke-dasharray:none;stroke-opacity:1"
         transform="scale(-1,1)" /><rect
         transform="rotate(-90)"
         style="fill:#f9bb01;fill-opacity:1;stroke:none;stroke-width:0.127694;stroke-miterlimit:4;stroke-dasharray:none;stroke-opacity:1"
         id="rect3565"
         width="16.557604"
         height="1.5686284"
         x="-273.09851"
         y="28.113148" /><rect
         style="fill:#f9bb01;fill-opacity:1;stroke:none;stroke-width:0.0842417;stroke-miterlimit:4;stroke-dasharray:none;stroke-opacity:1"
         id="rect3567"
         width="7.843142"
         height="1.4412346"
         x="-35.956291"
         y="256.54092"
         transform="scale(-1,1)" /><path
         style="fill:#f9bb01;fill-opacity:1;stroke:none;stroke-width:0.246867;stroke-miterlimit:4;stroke-dasharray:none;stroke-opacity:1"
         d="m 11.558816,272.84215 c -0.0328,0.96577 0.167861,1.93643 0.654028,2.8458 1.814552,4.0428 8.111096,5.85409 11.872887,2.96347 1.969632,-1.33059 3.107976,-3.58021 3.153282,-5.80927 h -1.567047 c -0.01153,1.54491 -0.656763,3.10182 -1.860626,4.18825 -2.779089,2.77452 -8.249321,1.72078 -10.033608,-1.55521 -0.499588,-0.82393 -0.69553,-1.73026 -0.64687,-2.63304 z"
         id="path3569"
         inkscape:connector-curvature="0" /><path
         inkscape:connector-curvature="0"
         id="path3571"
         d="m 43.811712,272.84215 c 0.0328,0.96577 -0.167861,1.93643 -0.654033,2.8458 -1.814548,4.0428 -8.111069,5.85409 -11.87284,2.96347 -1.969621,-1.33059 -3.107959,-3.58021 -3.15326,-5.80927 h 1.567036 c 0.01153,1.54491 0.656758,3.10182 1.860611,4.18825 2.779078,2.77452 8.249278,1.72078 10.033576,-1.55521 0.499577,-0.82393 0.695524,-1.73026 0.646859,-2.63304 z"
         style="fill:#f9bb01;fill-opacity:1;stroke:none;stroke-width:0.246867;stroke-miterlimit:4;stroke-dasharray:none;stroke-opacity:1" /><path
         style="fill:#fc5e28;fill-opacity:1;stroke:none;stroke-width:0.143095;stroke-miterlimit:4;stroke-dasharray:none;stroke-opacity:1"
         d="m 13.868683,272.987 a 5.4901996,5.044321 0 0 0 5.485679,4.96197 5.4901996,5.044321 0 0 0 5.487023,-4.96197 H 23.27218 c -0.04084,1.10966 -0.593899,2.21271 -1.605824,2.86045 -1.958772,1.3969 -5.168485,0.45181 -5.96434,-1.65478 -0.182055,-0.38934 -0.266662,-0.79778 -0.26872,-1.20567 z"
         id="path3573"
         inkscape:connector-curvature="0" /><path
         inkscape:connector-curvature="0"
         id="path3575"
         d="m 41.504231,272.987 a 5.4901996,5.044321 0 0 1 -5.485658,4.96197 5.4901996,5.044321 0 0 1 -5.486996,-4.96197 h 1.5692 c 0.04084,1.10966 0.593898,2.21271 1.605813,2.86045 1.958767,1.3969 5.168458,0.45181 5.964313,-1.65478 0.182055,-0.38934 0.266663,-0.79778 0.268715,-1.20567 z"
         style="fill:#fc5e28;fill-opacity:1;stroke:none;stroke-width:0.143095;stroke-miterlimit:4;stroke-dasharray:none;stroke-opacity:1" /><path
         inkscape:connector-curvature="0"
         id="path3577"
         d="m 27.698114,258.49059 a 4.4020892,4.5260774 0 0 0 -4.402027,4.52602 4.4020892,4.5260774 0 0 0 2.969676,4.27416 v -0.81628 a 3.4937215,3.795251 0 0 1 -2.061381,-3.45788 3.4937215,3.795251 0 0 1 3.493732,-3.79527 3.4937215,3.795251 0 0 1 3.493733,3.79527 3.4937215,3.795251 0 0 1 -2.061112,3.45626 v 0.81827 a 4.4020892,4.5260774 0 0 0 2.969539,-4.27453 4.4020892,4.5260774 0 0 0 -4.40216,-4.52602 z"
         clip-path="none"
         style="fill:#ffffff;fill-opacity:1;stroke:none;stroke-width:0.144536;stroke-miterlimit:4;stroke-dasharray:none;stroke-opacity:1" /><rect
         y="255.66643"
         x="20.716902"
         height="0.80051696"
         width="13.962556"
         id="rect3579"
         style="fill:#040e26;fill-opacity:1;stroke:none;stroke-width:0.0837684;stroke-miterlimit:4;stroke-dasharray:none;stroke-opacity:1" /><rect
         y="-28.060991"
         x="253.64587"
         height="0.81830132"
         width="12.828608"
         id="rect3581"
         style="fill:#040e26;fill-opacity:1;stroke:none;stroke-width:0.0811819;stroke-miterlimit:4;stroke-dasharray:none;stroke-opacity:1"
         transform="rotate(90)" /><path
         inkscape:connector-curvature="0"
         id="path3583"
         d="m 27.698114,244.73837 a 4.4020892,4.5260774 0 0 0 -4.402027,4.52602 4.4020892,4.5260774 0 0 0 4.402027,4.52615 4.4020892,4.5260774 0 0 0 4.40216,-4.52615 4.4020892,4.5260774 0 0 0 -4.40216,-4.52602 z m 0,0.73075 a 3.4937215,3.795251 0 0 1 3.493733,3.79527 3.4937215,3.795251 0 0 1 -3.493733,3.79527 3.4937215,3.795251 0 0 1 -3.493732,-3.79527 3.4937215,3.795251 0 0 1 3.493732,-3.79527 z"
         style="fill:#ffffff;fill-opacity:1;stroke:none;stroke-width:0.144536;stroke-miterlimit:4;stroke-dasharray:none;stroke-opacity:1" /><rect
         transform="scale(-1,1)"
         y="254.40852"
         x="-34.434654"
         height="1.4412346"
         width="13.515304"
         id="rect3585"
         style="fill:#f9bb01;fill-opacity:1;stroke:none;stroke-width:0.110584;stroke-miterlimit:4;stroke-dasharray:none;stroke-opacity:1" /><g
         style="fill:#fc5e28;fill-opacity:1"
         transform="matrix(0.05785864,0,0,0.05314368,24.91793,246.38566)"
         id="g3601"><path
           style="fill:#fc5e28;fill-opacity:1"
           inkscape:connector-curvature="0"
           d="m 39.5,42.4 2.8,-2.8 C 40.9,38.1 40,36.1 40,33.9 c 0,-2.2 0.9,-4.2 2.3,-5.7 l -2.8,-2.8 c -2.2,2.2 -3.5,5.2 -3.5,8.5 0,3.3 1.3,6.3 3.5,8.5 z"
           id="path3587" /><path
           style="fill:#fc5e28;fill-opacity:1"
           inkscape:connector-curvature="0"
           d="m 33.9,48 2.8,-2.8 C 33.8,42.3 32,38.3 32,33.9 c 0,-4.4 1.8,-8.4 4.7,-11.3 l -2.8,-2.8 c -3.7,3.6 -5.9,8.6 -5.9,14.1 0,5.5 2.2,10.5 5.9,14.1 z"
           id="path3589" /><path
           style="fill:#fc5e28;fill-opacity:1"
           inkscape:connector-curvature="0"
           d="m 31,50.9 c -4.3,-4.3 -7,-10.3 -7,-17 0,-6.7 2.7,-12.6 7,-17 L 28.2,14.1 C 23.1,19.2 20,26.2 20,33.9 c 0,7.7 3.1,14.7 8.2,19.8 z"
           id="path3591" /><path
           style="fill:#fc5e28;fill-opacity:1"
           inkscape:connector-curvature="0"
           d="m 56.5,42.4 c 2.2,-2.2 3.5,-5.2 3.5,-8.5 0,-3.3 -1.3,-6.3 -3.5,-8.5 l -2.8,2.8 c 1.4,1.4 2.3,3.4 2.3,5.7 0,2.3 -0.9,4.2 -2.3,5.7 z"
           id="path3593" /><path
           style="fill:#fc5e28;fill-opacity:1"
           inkscape:connector-curvature="0"
           d="M 59.3,45.2 62.1,48 C 65.8,44.4 68,39.4 68,33.9 68,28.4 65.8,23.4 62.1,19.8 l -2.8,2.8 c 2.9,2.9 4.7,6.9 4.7,11.3 0,4.4 -1.8,8.4 -4.7,11.3 z"
           id="path3595" /><path
           style="fill:#fc5e28;fill-opacity:1"
           inkscape:connector-curvature="0"
           d="m 65,50.9 2.8,2.8 C 72.9,48.6 76,41.6 76,33.9 76,26.2 72.9,19.2 67.8,14.1 L 65,16.9 c 4.3,4.3 7,10.3 7,17 0,6.7 -2.7,12.6 -7,17 z"
           id="path3597" /><path
           style="fill:#fc5e28;fill-opacity:1"
           inkscape:connector-curvature="0"
           d="m 74,73.9 c -1.1,0 -2,-0.9 -2,-2 0,-1.1 0.9,-2 2,-2 1.1,0 2,0.9 2,2 0,1.1 -0.9,2 -2,2 z m -10,0 c -1.1,0 -2,-0.9 -2,-2 0,-1.1 0.9,-2 2,-2 1.1,0 2,0.9 2,2 0,1.1 -0.9,2 -2,2 z m -10,0 c -1.1,0 -2,-0.9 -2,-2 0,-1.1 0.9,-2 2,-2 1.1,0 2,0.9 2,2 0,1.1 -0.9,2 -2,2 z m -10,0 c -1.1,0 -2,-0.9 -2,-2 0,-1.1 0.9,-2 2,-2 1.1,0 2,0.9 2,2 0,1.1 -0.9,2 -2,2 z m -20,2 c -2.2,0 -4,-1.8 -4,-4 0,-2.2 1.8,-4 4,-4 2.2,0 4,1.8 4,4 0,2.2 -1.8,4 -4,4 z m 54,-14 H 50 V 37.3 c 1.2,-0.7 2,-2 2,-3.4 0,-2.2 -1.8,-4 -4,-4 -2.2,0 -4,1.8 -4,4 0,1.5 0.8,2.8 2,3.4 V 61.9 H 18 c -2.2,0 -4,1.8 -4,4 v 12 c 0,2.2 1.8,4 4,4 h 60 c 2.2,0 4,-1.8 4,-4 v -12 c 0,-2.2 -1.8,-4 -4,-4 z"
           id="path3599" /></g><text
         xml:space="preserve"
         style="font-style:normal;font-weight:bold;font-size:4.78909px;line-height:1.25;font-family:Loma;letter-spacing:0px;word-spacing:0px;fill:#fc5e28;fill-opacity:1;stroke:none;stroke-width:0.119727;-inkscape-font-specification:'Loma, Bold';font-stretch:normal;font-variant:normal;font-variant-ligatures:normal;font-variant-caps:normal;font-variant-numeric:normal;font-variant-east-asian:normal"
         x="16.132217"
         y="332.21512"
         id="text3605"
         transform="scale(1.1676107,0.85644981)"><tspan
           sodipodi:role="line"
           id="tspan3603"
           x="16.132217"
           y="332.21512"
           style="fill:#fc5e28;fill-opacity:1;stroke-width:0.119727;-inkscape-font-specification:'Loma, Bold';font-family:Loma;font-weight:bold;font-style:normal;font-stretch:normal;font-variant:normal;font-size:4.78909024px;font-variant-ligatures:normal;font-variant-caps:normal;font-variant-numeric:normal;font-variant-east-asian:normal">JINOO</tspan></text></g></g></svg>
